PathFileType	4	(X/Y/Z)	two_link_pedal_01.trc
DataRate	CameraRate	NumFrames	NumMarkers	Units	OrigDataRate	OrigDataStartFrame	OrigNumFrames
100	100	3	2	m	100	1	4	
Frame#	Time	Link2_Marker_1			Link1_Marker_1		
		X1	Y1	Z1	X2	Y2	Z2

1	0.000000000	-0.147989899	0.447989899	0.000000000	0.050000000	0.250000000	0.000000000
2	0.010000000	0.077914881	0.373994949	0.000000000	0.050000000	0.250000000	0.000000000
3	0.020000000	0.303819660	0.300000000	0.000000000	0.050000000	0.250000000	0.000000000
